<svg xmlns="http://www.w3.org/2000/svg" width="169.78" height="35" viewBox="0 0 169.78 35"><rect class="svg__rect" x="0" y="0" width="115.31" height="35" fill="#EA4560"/><rect class="svg__rect" x="113.31" y="0" width="56.47" height="35" fill="#C13B3A"/><path class="svg__text" d="M15.69 22L14.22 22L14.22 13.47L16.14 13.47L18.60 20.01L21.06 13.47L22.97 13.47L22.97 22L21.49 22L21.49 19.19L21.64 15.43L19.12 22L18.06 22L15.55 15.43L15.69 19.19L15.69 22ZM28.49 22L26.95 22L30.17 13.47L31.50 13.47L34.73 22L33.18 22L32.49 20.01L29.18 20.01L28.49 22ZM30.83 15.28L29.60 18.82L32.07 18.82L30.83 15.28ZM41.14 22L38.69 22L38.69 13.47L41.21 13.47Q42.34 13.47 43.21 13.97Q44.09 14.48 44.57 15.40Q45.05 16.33 45.05 17.52L45.05 17.52L45.05 17.95Q45.05 19.16 44.57 20.08Q44.08 21.00 43.19 21.50Q42.30 22 41.14 22L41.14 22ZM40.17 14.66L40.17 20.82L41.14 20.82Q42.30 20.82 42.93 20.09Q43.55 19.36 43.56 17.99L43.56 17.99L43.56 17.52Q43.56 16.13 42.96 15.40Q42.35 14.66 41.21 14.66L41.21 14.66L40.17 14.66ZM55.09 22L49.51 22L49.51 13.47L55.05 13.47L55.05 14.66L51.00 14.66L51.00 17.02L54.50 17.02L54.50 18.19L51.00 18.19L51.00 20.82L55.09 20.82L55.09 22ZM66.65 22L64.68 13.47L66.15 13.47L67.47 19.88L69.10 13.47L70.34 13.47L71.96 19.89L73.27 13.47L74.74 13.47L72.77 22L71.35 22L69.73 15.77L68.07 22L66.65 22ZM80.38 22L78.90 22L78.90 13.47L80.38 13.47L80.38 22ZM86.87 14.66L84.23 14.66L84.23 13.47L91.00 13.47L91.00 14.66L88.34 14.66L88.34 22L86.87 22L86.87 14.66ZM96.24 22L94.75 22L94.75 13.47L96.24 13.47L96.24 17.02L100.05 17.02L100.05 13.47L101.53 13.47L101.53 22L100.05 22L100.05 18.21L96.24 18.21L96.24 22Z" fill="#FFFFFF"/><path class="svg__text" d="M129.83 22L127.50 22L127.50 13.60L129.45 13.60L133.16 18.07L133.16 13.60L135.49 13.60L135.49 22L133.54 22L129.83 17.52L129.83 22ZM143.03 22L140.65 22L140.65 13.60L143.03 13.60L143.03 22ZM150.40 22L148.20 22L148.20 13.60L150.16 13.60L153.12 18.45L156.00 13.60L157.95 13.60L157.97 22L155.79 22L155.77 17.55L153.61 21.17L152.55 21.17L150.40 17.67L150.40 22Z" fill="#FFFFFF" x="126.31"/></svg>